<svg width="234" height="258" viewBox="0 0 234 258" fill="none" xmlns="http://www.w3.org/2000/svg">
<path d="M156.75 85.4062C156.75 86.9062 156.469 88.375 155.906 89.8125C155.344 91.25 154.969 92.6875 154.781 94.125C152.969 97.1875 151.062 100.219 149.062 103.219C147.125 106.156 144.781 108.812 142.031 111.188V111.562C142.031 112 141.906 112.312 141.656 112.5C141.469 112.688 141.375 113.031 141.375 113.531C140.188 114.219 139.094 115.031 138.094 115.969C137.156 116.844 136.219 117.781 135.281 118.781C134.406 119.719 133.5 120.688 132.562 121.688C131.625 122.625 130.625 123.5 129.562 124.312L129.656 124.5C129.656 124.812 129.562 125.031 129.375 125.156C129.188 125.281 129.156 125.594 129.281 126.094C128.406 126.656 127.594 127.25 126.844 127.875C126.094 128.5 125.562 129.344 125.25 130.406C123.75 131.094 122.5 132.031 121.5 133.219C120.562 134.406 119.656 135.688 118.781 137.062C118.031 137.188 117.312 137.438 116.625 137.812C115.938 138.188 115.531 138.844 115.406 139.781C113.156 140.469 111.281 141.594 109.781 143.156C108.344 144.719 107 146.5 105.75 148.5C105.812 149 105.844 149.5 105.844 150C105.906 150.5 105.938 151 105.938 151.5C105.938 153.625 105.531 155.75 104.719 157.875C105.281 159.562 105.562 161.25 105.562 162.938C105.562 164.5 105.281 165.969 104.719 167.344C103.344 167.594 102.156 168 101.156 168.562C100.156 169.188 98.9062 169.5 97.4062 169.5C97.0938 169.5 96.7812 169.469 96.4688 169.406C96.2188 169.406 95.9375 169.375 95.625 169.312C94.8125 168.312 94.1875 167.219 93.75 166.031C93.375 164.781 92.75 163.656 91.875 162.656C92.375 162.406 92.6875 162 92.8125 161.438C92.9375 160.812 93 160.25 93 159.75C93 159.25 92.9375 158.719 92.8125 158.156C92.75 157.531 92.5938 157 92.3438 156.562C92.7188 155 92.9062 153.344 92.9062 151.594C92.9062 149.281 92.5625 146.906 91.875 144.469C92.5 143.594 93.125 142.781 93.75 142.031C94.4375 141.219 95.1562 140.469 95.9062 139.781C96.2188 139.844 96.4688 139.938 96.6562 140.062C96.9062 140.125 97.1875 140.156 97.5 140.156H97.9688C99.7188 139.906 101.156 139.5 102.281 138.938C103.469 138.375 104.531 137.719 105.469 136.969C106.469 136.219 107.438 135.438 108.375 134.625C109.312 133.75 110.438 132.906 111.75 132.094C112.312 131.344 112.938 130.656 113.625 130.031C114.312 129.406 115 128.781 115.688 128.156C116.438 127.531 117.094 126.875 117.656 126.188C118.281 125.438 118.781 124.594 119.156 123.656C120.406 122.969 121.5 122.188 122.438 121.312C123.375 120.438 124.094 119.281 124.594 117.844C125.969 116.969 127.188 115.938 128.25 114.75C129.375 113.562 130.469 112.344 131.531 111.094C132.594 109.844 133.688 108.656 134.812 107.531C135.938 106.344 137.219 105.312 138.656 104.438C138.656 104.375 138.625 104.312 138.562 104.25C138.562 104.188 138.562 104.094 138.562 103.969C138.562 103.656 138.594 103.375 138.656 103.125C138.781 102.812 138.875 102.5 138.938 102.188C139.625 102 140.094 101.656 140.344 101.156C140.656 100.656 141.094 100.312 141.656 100.125C141.906 98.75 142.344 97.625 142.969 96.75C143.656 95.875 144.344 94.875 145.031 93.75C145.281 93.375 145.469 92.9688 145.594 92.5312C145.719 92.0938 145.875 91.7188 146.062 91.4062C146.188 91.0938 146.406 90.875 146.719 90.75C147.094 90.625 147.406 90.5 147.656 90.375C147.531 89.5625 147.438 88.625 147.375 87.5625C147.375 86.5 147.156 85.625 146.719 84.9375C145.031 84.25 143.344 83.9062 141.656 83.9062C140.531 83.9062 139.438 84 138.375 84.1875C137.312 84.375 136.219 84.5938 135.094 84.8438C134.031 85.0938 132.969 85.3125 131.906 85.5C130.844 85.625 129.75 85.6562 128.625 85.5938C125.812 86.9062 123 88.125 120.188 89.25C117.375 90.375 114.438 91.1875 111.375 91.6875C109.5 93.125 107.594 94.3438 105.656 95.3438C103.781 96.3438 101.656 97.0312 99.2812 97.4062C98.9062 97.7812 98.0312 98.5625 96.6562 99.75C95.2812 100.938 93.8438 102.156 92.3438 103.406C90.8438 104.656 89.4375 105.781 88.125 106.781C86.8125 107.719 86 108.188 85.6875 108.188C85.125 108.188 84.6562 108 84.2812 107.625C83.9688 107.188 83.6875 106.719 83.4375 106.219C83.1875 105.719 82.9375 105.25 82.6875 104.812C82.4375 104.312 82.1562 103.969 81.8438 103.781C82.1562 103.094 82.3438 102.344 82.4062 101.531C82.5312 100.719 82.5625 99.9062 82.5 99.0938C83.0625 98.0938 83.7812 97.25 84.6562 96.5625C85.5312 95.8125 86.4375 95.125 87.375 94.5C88.3125 93.875 89.2188 93.25 90.0938 92.625C91.0312 92 91.875 91.25 92.625 90.375C93.5625 90.25 94.4375 89.9688 95.25 89.5312C96.0625 89.0938 96.8438 88.6562 97.5938 88.2188C98.4062 87.7188 99.1875 87.2812 99.9375 86.9062C100.688 86.5312 101.5 86.3438 102.375 86.3438C103 85.9062 103.656 85.5625 104.344 85.3125C105.031 85 105.719 84.75 106.406 84.5625C107.156 84.3125 107.875 84.0625 108.562 83.8125C109.25 83.5625 109.875 83.1875 110.438 82.6875H112.125C113.625 81.75 115.188 81 116.812 80.4375C118.5 79.875 120.188 79.375 121.875 78.9375C123.562 78.4375 125.25 77.9688 126.938 77.5312C128.625 77.0938 130.281 76.5625 131.906 75.9375C133.719 75.9375 135.5 75.7812 137.25 75.4688C139 75.1562 140.781 75 142.594 75C145.094 75 147.406 75.4062 149.531 76.2188C151.656 76.9688 153.625 78.2188 155.438 79.9688V81.9375C156.312 82.875 156.75 84.0312 156.75 85.4062ZM110.719 184.781C110.531 185.031 110.312 185.219 110.062 185.344C109.875 185.531 109.688 185.688 109.5 185.812C109.312 186 109.156 186.188 109.031 186.375C108.969 186.562 109 186.844 109.125 187.219C107.562 187.281 106.344 187.656 105.469 188.344C104.656 189.094 103.844 190.062 103.031 191.25C101.906 191.25 101.094 191.531 100.594 192.094C100.156 192.719 99.5 193.219 98.625 193.594H98.25C96.875 193.594 95.75 193.281 94.875 192.656C94 192.094 93.2812 191.344 92.7188 190.406C92.2188 189.469 91.8438 188.406 91.5938 187.219C91.4062 186.094 91.2812 184.969 91.2188 183.844C92.4062 183.031 93.6562 182.312 94.9688 181.688C96.2812 181.125 97.6562 180.844 99.0938 180.844C100.219 180.844 101.312 181.031 102.375 181.406C102.75 181.406 103.031 181.281 103.219 181.031C103.469 180.844 103.688 180.625 103.875 180.375C104.125 180.125 104.375 179.906 104.625 179.719C104.875 179.531 105.25 179.438 105.75 179.438C106.625 180.25 107.469 181.125 108.281 182.062C109.094 183 109.906 183.906 110.719 184.781Z" fill="#FDCA40"/>
<path d="M231.5 129C231.5 199.099 180.013 255.5 117 255.5C53.9875 255.5 2.5 199.099 2.5 129C2.5 58.9007 53.9875 2.5 117 2.5C180.013 2.5 231.5 58.9007 231.5 129Z" stroke="#FDCA40" stroke-width="5"/>
</svg>
